Coordinates
version=1
nRows=20
nColumns=33
inDegrees=yes

Units are S.I. units (second, meters, Newtons, ...)
Angles are in degrees.

endheader
time	ground_thorax_rot_x	ground_thorax_rot_y	ground_thorax_rot_z	ground_thorax_tx	ground_thorax_ty	ground_thorax_tz	clav_prot_r	clav_elev_r	scapula_abduction_r	scapula_elevation_r	scapula_upward_rot_r	scapula_winging_r	shoulder_elv_r	plane_of_elev_r	axial_rot_r	elbow_flexion_r	pro_sup_r	wrist_flex_r	wrist_dev_r	clav_prot_l	clav_elev_l	scapula_abduction_l	scapula_elevation_l	scapula_upward_rot_l	scapula_winging_l	shoulder_elv_l	plane_of_elev_l	axial_rot_l	elbow_flexion_l	pro_sup_l	wrist_flex_l	wrist_dev_l	
6.9100	-40.962651	-4.335496	2.430221	-151.120946	897.901982	-8.925742	9.285403	-45.000000	40.459534	-45.000000	-27.487475	1700.824404	-2087.113164	31.668246	81.830582	1458.286147	-289.690306	17.017047	3.234188	15.284071	39.540279	-41.535858	-45.000000	-40.784073	86.852770	-2974.676444	138.292795	164.511029	13.868425	51.387266	4.615479	-22.327305	
6.9200	-40.985133	-4.077124	2.182637	-148.274520	898.954864	-8.832694	9.164283	-45.000000	40.820130	-45.000000	-26.153030	1700.866253	-2087.028448	31.676520	81.668561	1458.432071	-288.340981	16.927134	3.150504	15.290314	39.719657	-41.773712	-45.000000	-40.047829	86.954574	-2974.639205	138.253922	164.883774	13.873315	51.351713	4.606335	-22.335499	
6.9300	-41.002756	-3.832094	1.948161	-145.360940	899.793713	-8.742941	9.023293	-45.000000	41.190920	-45.000000	-24.764015	1700.916469	-2086.965322	31.650666	81.543663	1458.564170	-287.050986	16.860511	3.087289	15.369886	39.915099	-42.021702	-45.000000	-39.333642	87.039158	-2974.624125	138.223597	165.278028	13.862060	51.195155	4.601126	-22.329322	
6.9400	-41.015004	-3.592783	1.719832	-142.383974	900.418700	-8.653773	8.868876	-45.000000	41.565309	-45.000000	-23.332629	1700.970397	-2086.923612	31.601842	81.442993	1458.687702	-285.815334	16.810496	3.039195	15.493940	40.122269	-42.275903	-45.000000	-38.628896	87.102813	-2974.630147	138.200069	165.680295	13.832689	50.900563	4.610463	-22.318551	
6.9500	-41.023582	-3.363860	1.496690	-139.346679	900.833193	-8.563035	8.714327	-45.000000	41.942061	-45.000000	-21.916930	1701.030828	-2086.903303	31.550826	81.330395	1458.798129	-284.657145	16.764611	3.002289	15.606499	40.333083	-42.526085	-45.000000	-37.919372	87.162332	-2974.654826	138.170615	166.059286	13.785271	50.455140	4.649787	-22.317270	
6.9600	-41.027459	-3.135918	1.272453	-136.251668	901.042918	-8.469318	8.560538	-45.000000	42.310492	-45.000000	-20.512000	1701.091667	-2086.900888	31.505559	81.203471	1458.903330	-283.592682	16.720247	2.971322	15.699270	40.545264	-42.773534	-45.000000	-37.192846	87.206834	-2974.700757	138.145973	166.406105	13.719237	49.839913	4.723906	-22.329861	
6.9700	-41.029438	-2.912437	1.045682	-133.101184	901.055121	-8.371969	8.414503	-45.000000	42.672121	-45.000000	-19.154666	1701.156868	-2086.919436	31.477120	81.038762	1458.995437	-282.650300	16.669765	2.945235	15.737560	40.753722	-43.011794	-45.000000	-36.434876	87.251747	-2974.767129	138.118510	166.698377	13.634940	49.042725	4.843263	-22.364422	
6.9800	-41.028440	-2.687126	0.814986	-129.897537	900.877307	-8.271023	8.270483	-45.000000	43.023989	-45.000000	-17.822983	1701.223999	-2086.956601	31.459186	80.848555	1459.075162	-281.835090	16.619398	2.924817	15.748075	40.960119	-43.247590	-45.000000	-35.653156	87.286731	-2974.855079	138.094786	166.951965	13.530273	48.050765	5.004381	-22.414587	
6.9900	-41.025484	-2.468497	0.583124	-126.643047	900.516358	-8.167037	8.129657	-45.000000	43.373112	-45.000000	-16.529059	1701.298557	-2087.014666	31.450169	80.628994	1459.135851	-281.151134	16.571325	2.912737	15.731425	41.163866	-43.479580	-45.000000	-34.859443	87.322050	-2974.964241	138.067967	167.173738	13.404793	46.861865	5.207511	-22.476756	
7.0000	-41.019645	-2.249050	0.349764	-123.339977	899.977628	-8.060949	7.985340	-45.000000	43.714423	-45.000000	-15.241473	1701.375852	-2087.093235	31.440394	80.405708	1459.185881	-280.582270	16.531089	2.908396	15.720466	41.366282	-43.714130	-45.000000	-34.070684	87.341154	-2975.091763	138.045163	167.396089	13.259799	45.474421	5.447207	-22.542517	
7.0100	-41.011317	-2.041743	0.123940	-119.990594	899.264642	-7.953965	7.843143	-45.000000	44.043976	-45.000000	-14.005980	1701.465272	-2087.192442	31.434472	80.161004	1459.222858	-280.125764	16.494572	2.911858	15.689142	41.563125	-43.944177	-44.999999	-33.294141	87.358135	-2975.237731	138.013523	167.612377	13.097261	43.908854	5.725090	-22.611232	
7.0200	-40.999705	-1.851816	-0.086413	-116.596865	898.378768	-7.847508	7.709579	-45.000000	44.342166	-45.000000	-12.871572	1701.575102	-2087.310945	31.445657	79.891833	1459.246759	-279.777760	16.449541	2.920882	15.611025	41.742628	-44.163350	-44.999999	-32.546894	87.372390	-2975.394418	137.963669	167.827280	12.924580	42.205104	6.046017	-22.685770	
7.0300	-40.983167	-1.677265	-0.282770	-113.160516	897.319456	-7.743197	7.574530	-45.000000	44.592155	-45.000000	-11.836805	1701.720962	-2087.445665	31.465913	79.588445	1459.259251	-279.536722	16.413047	2.938497	15.508581	41.915017	-44.373835	-44.999998	-31.824615	87.380558	-2975.566002	137.901420	168.037237	12.741589	40.393857	6.397365	-22.755679	
7.0400	-40.962241	-1.519603	-0.458064	-109.682545	896.084555	-7.642807	7.444976	-45.000000	44.779017	-45.000000	-10.925540	1701.900048	-2087.601717	31.505027	79.255502	1459.260658	-279.400312	16.370534	2.961634	15.358502	42.070046	-44.564655	-44.999996	-31.129298	87.368056	-2975.742015	137.827836	168.239194	12.556267	38.515062	6.784651	-22.823954	
7.0500	-40.933347	-1.377752	-0.610474	-106.163996	894.670950	-7.548130	7.306660	-45.000000	44.902345	-45.000000	-10.118483	1702.119983	-2087.771399	31.545818	78.885009	1459.253238	-279.364324	16.345854	2.994271	15.210086	42.221632	-44.728641	-44.999992	-30.449767	87.319606	-2975.925613	137.752954	168.429916	12.368389	36.588987	7.185926	-22.874685	
7.0600	-40.896467	-1.253325	-0.740147	-102.605337	893.074779	-7.460731	7.155622	-45.000000	44.968892	-45.000000	-9.407241	1702.380697	-2087.955555	31.581997	78.484296	1459.236847	-279.430261	16.341058	3.036804	15.068159	42.369528	-44.849688	-44.999986	-29.778973	87.221000	-2976.109000	137.678708	168.615558	12.181484	34.630726	7.595219	-22.905223	
7.0700	-40.849820	-1.138556	-0.856422	-99.007271	891.291869	-7.381469	6.976089	-45.000000	44.994877	-45.000000	-8.727062	1702.679525	-2088.152611	31.590520	78.057102	1459.214945	-279.598559	16.386503	3.094234	15.001597	42.531567	-44.935161	-44.999975	-29.114898	87.059507	-2976.298201	137.621073	168.806273	11.987441	32.627043	7.989829	-22.897975	
7.0800	-40.795495	-1.037635	-0.955115	-95.370554	889.318025	-7.310244	6.774823	-45.000000	45.000000	-45.000000	-8.075867	1702.997342	-2088.374593	31.575210	77.609205	1459.179911	-279.880871	16.463199	3.165250	14.981550	42.697452	-44.981172	-44.999955	-28.464497	86.830796	-2976.489252	137.579861	169.003017	11.788699	30.576107	8.378890	-22.859427	
7.0900	-40.732192	-0.965794	-1.024853	-91.696747	887.149481	-7.245709	6.578114	-45.000000	45.000000	-45.000000	-7.497094	1703.322186	-2088.623437	31.553303	77.125813	1459.125696	-280.285364	16.560925	3.250245	14.988310	42.854891	-45.000000	-44.999920	-27.873145	86.561633	-2976.685343	137.535185	169.197388	11.590093	28.509064	8.764356	-22.789627	
7.1000	-40.661631	-0.912241	-1.076681	-87.988030	884.783276	-7.185465	6.377844	-45.000000	45.000000	-45.000000	-6.971678	1703.652497	-2088.900969	31.521750	76.605671	1459.048705	-280.833047	16.676354	3.351114	15.015832	43.005605	-45.000000	-44.999856	-27.334989	86.247910	-2976.889561	137.493502	169.405239	11.393192	26.448787	9.146153	-22.694449	
